<?xml version="1.0" encoding="UTF-8" standalone="no"?>
<!-- Created with Inkscape (http://www.inkscape.org/) -->

<svg
   xmlns:dc="http://purl.org/dc/elements/1.1/"
   xmlns:cc="http://creativecommons.org/ns#"
   xmlns:rdf="http://www.w3.org/1999/02/22-rdf-syntax-ns#"
   xmlns:svg="http://www.w3.org/2000/svg"
   xmlns="http://www.w3.org/2000/svg"
   xmlns:sodipodi="http://sodipodi.sourceforge.net/DTD/sodipodi-0.dtd"
   xmlns:inkscape="http://www.inkscape.org/namespaces/inkscape"
   width="31.496513mm"
   height="24.810781mm"
   viewBox="0 0 31.496513 24.810781"
   version="1.1"
   id="svg2275"
   inkscape:version="0.92.3 (2405546, 2018-03-11)"
   sodipodi:docname="Logo Module FRS.svg">
  <defs
     id="defs2269">
    <marker
       inkscape:stockid="Arrow2Lend"
       orient="auto"
       refY="0"
       refX="0"
       id="Arrow2Lend"
       style="overflow:visible"
       inkscape:isstock="true">
      <path
         inkscape:connector-curvature="0"
         id="path1465"
         style="fill:#000000;fill-opacity:1;fill-rule:evenodd;stroke:#000000;stroke-width:0.625;stroke-linejoin:round;stroke-opacity:1"
         d="M 8.7185878,4.0337352 -2.2072895,0.01601326 8.7185884,-4.0017078 c -1.7454984,2.3720609 -1.7354408,5.6174519 -6e-7,8.035443 z"
         transform="matrix(-1.1,0,0,-1.1,-1.1,0)" />
    </marker>
  </defs>
  <sodipodi:namedview
     id="base"
     pagecolor="#ffffff"
     bordercolor="#666666"
     borderopacity="1.0"
     inkscape:pageopacity="0.0"
     inkscape:pageshadow="2"
     inkscape:zoom="2.8"
     inkscape:cx="45.710153"
     inkscape:cy="30.923448"
     inkscape:document-units="mm"
     inkscape:current-layer="layer1"
     showgrid="false"
     inkscape:window-width="1920"
     inkscape:window-height="1017"
     inkscape:window-x="-8"
     inkscape:window-y="-8"
     inkscape:window-maximized="1" />
  <metadata
     id="metadata2272">
    <rdf:RDF>
      <cc:Work
         rdf:about="">
        <dc:format>image/svg+xml</dc:format>
        <dc:type
           rdf:resource="http://purl.org/dc/dcmitype/StillImage" />
        <dc:title></dc:title>
      </cc:Work>
    </rdf:RDF>
  </metadata>
  <g
     inkscape:label="Layer 1"
     inkscape:groupmode="layer"
     id="layer1"
     transform="translate(-84.793472,-69.904143)">
    <path
       id="path815-8"
       overflow="visible"
       display="inline"
       visibility="visible"
       marker="none"
       style="color:#000000;text-indent:0;text-transform:none;direction:ltr;baseline-shift:baseline;display:inline;overflow:visible;visibility:visible;fill:#000000;fill-opacity:1;stroke:none;stroke-width:0.26458332;enable-background:accumulate"
       d="m 103.7219,73.474833 c 1.22104,-0.0232 2.48265,0.0757 3.6054,0.14898 -2.25428,0.56064 -5.0875,1.00817 -7.569682,1.48979 -1.54069,0.29894 -2.933242,0.60976 -3.964279,0.99319 -0.734287,0.29387 -1.776023,0.76175 -1.794356,1.58083 0.04307,1.1411 1.521732,1.81686 2.436984,2.300891 3.586563,1.76826 6.913613,2.94372 10.065093,5.09837 1.34736,1.0001 2.18662,2.0645 2.18662,3.19477 0,1.94207 -1.77453,4.27119 -3.86413,6.3564 h -7.486229 c 0.464595,-0.27252 0.85702,-0.60161 1.126691,-0.86905 l -0.383911,-0.38071 c -0.50266,0.49848 -1.543981,1.24976 -2.478714,1.24976 h -9.138708 c 3.51632,-1.20962 6.813557,-2.24822 9.2472,-4.32866 0.602986,-0.60457 0.959774,-1.28281 0.959774,-2.02774 0,-0.87281 -0.6671,-1.72535 -1.585712,-2.62369 -2.140564,-2.06621 -4.58063,-3.54153 -6.601566,-5.570131 -0.88315,-0.89609 -1.427141,-1.73809 -1.427141,-2.40021 0.04639,-0.92639 1.160553,-1.5302 1.919544,-1.89534 1.270167,-0.60416 3.102682,-1.12622 5.241198,-1.51461 3.602966,-0.58214 6.658964,-0.79058 9.505924,-0.80284 z m -7.920213,1.3077 c -1.068274,0.26485 -2.154764,0.53046 -3.254883,1.07595 l 0.233683,0.48005 c 1.03642,-0.51391 2.086462,-0.778 3.154733,-1.04286 z m -4.398264,1.65532 c -0.565608,0.56091 -0.876316,1.16148 -0.876316,1.77946 0,0.61798 0.310708,1.21855 0.876316,1.77947 l 0.383908,-0.38073 c -0.502661,-0.49849 -0.726088,-0.95732 -0.726088,-1.39874 0,-0.44142 0.223427,-0.90025 0.726088,-1.39874 z m 1.694209,4.221051 -0.333835,0.41383 2.67067,2.11881 0.333835,-0.41383 z m 3.722246,2.896809 -0.30045,0.446941 3.204805,2.11878 0.300457,-0.44693 z m 4.523452,2.913361 -0.26707,0.45519 c 0.65645,0.3906 1.28741,0.83698 1.61075,1.33254 0.32334,0.49554 0.3903,1.00024 -0.10015,1.7298 l 0.45067,0.29797 c 0.57782,-0.85955 0.51125,-1.67912 0.10016,-2.30918 -0.4111,-0.63005 -1.11547,-1.10238 -1.79436,-1.50632 z m 0.5091,4.24587 -2.937743,2.11881 0.317143,0.43037 2.93774,-2.11881 z"
       inkscape:connector-curvature="0" />
    <path
       style="clip-rule:evenodd;fill-rule:evenodd;stroke:#ffffff;stroke-width:0.10519625;stroke-opacity:1"
       inkscape:connector-curvature="0"
       d="m 101.82913,78.301833 c 0.0656,-0.0168 0.1338,-0.0374 0.20608,-0.0637 -0.31601,-0.14801 -0.35988,-0.16073 -0.63203,-0.36723 0.1315,-0.0218 0.26311,-0.0603 0.38723,-0.11885 -0.29044,-0.13691 -0.56079,-0.30316 -0.80738,-0.49863 0.10341,-0.0266 0.20682,-0.0552 0.31002,-0.0856 0.1317,-0.0125 0.26498,-0.0371 0.39869,-0.0769 0.011,-0.006 0.0439,-0.0111 0.0347,-0.0182 -0.22996,-0.14907 -0.44319,-0.30854 -0.63865,-0.47707 0.0548,-0.0164 0.10877,-0.0368 0.16179,-0.0619 -0.21428,-0.10105 -0.41384,-0.22207 -0.59836,-0.36261 -0.088,-0.0972 -0.17052,-0.19651 -0.2472,-0.29802 0.0222,-0.003 0.0443,-0.008 0.0664,-0.0139 0.19703,0.0182 0.40142,0.001 0.60939,-0.0621 0.007,-0.006 0.0329,-0.01 0.0255,-0.0146 -0.0704,-0.0478 -0.13875,-0.097 -0.20503,-0.14737 0.11866,-0.0172 0.23596,-0.0499 0.34936,-0.10106 -0.4979,-0.23564 -0.91469,-0.57479 -1.24774,-1.02165 0.24575,0.0621 0.56859,9e-5 0.73807,-0.089 -0.18568,-0.10216 -0.3562,-0.2267 -0.512,-0.37323 0.0686,-0.0149 0.13824,-0.0403 0.20692,-0.078 -0.30864,-0.17431 -0.56848,-0.42436 -0.776137,-0.75205 0.07963,0.0469 0.183885,0.0641 0.289395,0.0621 0.108672,0.004 0.221122,-0.0156 0.335892,-0.0701 0.0147,-0.006 0.0286,-0.0125 0.0413,-0.0202 -3.1e-4,-1.1e-4 -3.9e-4,-3.17e-4 -7.9e-4,-3.97e-4 7.9e-4,-3.97e-4 0.002,-7.94e-4 0.003,-10e-4 -0.336099,-0.18999 -0.608243,-0.47675 -0.814744,-0.86588 0.120557,0.0384 0.252054,0.0364 0.387231,-0.0364 -0.09499,-0.0549 -0.180833,-0.11871 -0.261207,-0.19724 3.17e-4,1.1e-4 7.93e-4,1.1e-4 0.0012,2.1e-4 0.0017,4e-4 0.0028,0.001 0.0044,0.001 0.113301,0.0202 0.23196,0.007 0.3562,-0.0602 -0.02092,-0.0111 -0.04144,-0.0242 -0.06175,-0.037 -0.0043,-0.003 -0.0085,-0.006 -0.01265,-0.008 -0.01599,-0.01 -0.03178,-0.0208 -0.04733,-0.0318 -0.0047,-0.003 -0.0095,-0.007 -0.01398,-0.01 -0.01496,-0.0111 -0.02966,-0.0218 -0.04418,-0.0334 -0.0044,-0.004 -0.0088,-0.007 -0.01321,-0.0111 -0.01471,-0.0125 -0.02922,-0.0241 -0.04355,-0.0364 -0.0036,-0.003 -0.0074,-0.007 -0.01098,-0.01 -0.01504,-0.0139 -0.02986,-0.0272 -0.0444,-0.0414 -0.0028,-0.001 -0.0051,-0.006 -0.0078,-0.008 -0.01579,-0.0156 -0.03137,-0.0315 -0.04659,-0.048 -0.0012,-0.001 -0.0024,-0.001 -0.0036,-0.004 -0.119389,-0.12996 -0.221542,-0.28645 -0.306013,-0.47023 0.01407,0.006 0.02819,0.01 0.04217,0.0111 -0.0017,-0.004 -0.0017,-0.006 -0.0036,-0.007 -0.02923,-0.0675 -0.05481,-0.13886 -0.08037,-0.21185 0.109618,0.0676 0.178941,0.0602 0.316012,-0.0146 -0.01821,-0.01 -0.03597,-0.0213 -0.05334,-0.0329 -0.0024,-10e-4 -0.0051,-0.003 -0.0076,-0.006 -0.01682,-0.0111 -0.03336,-0.0236 -0.04933,-0.0364 -0.0024,-0.001 -0.0044,-0.004 -0.0067,-0.006 -0.01622,-0.0125 -0.03208,-0.0268 -0.04744,-0.0413 -2.09e-4,-2.1e-4 -3.97e-4,-3.1e-4 -3.97e-4,-4.1e-4 -0.01471,-0.014 -0.02894,-0.0288 -0.04292,-0.0439 -0.0032,-0.004 -0.0067,-0.007 -0.01001,-0.0111 -0.01279,-0.0143 -0.02505,-0.0291 -0.03713,-0.0445 -0.004,-0.006 -0.0079,-0.0111 -0.01196,-0.016 -0.0088,-0.0111 -0.01733,-0.0238 -0.02577,-0.036 -0.0064,-0.01 -0.01237,-0.0185 -0.01853,-0.0281 -0.0071,-0.0111 -0.01398,-0.0225 -0.02084,-0.0341 -0.0057,-0.01 -0.01126,-0.0195 -0.01674,-0.0293 -0.0047,-0.008 -0.0092,-0.0174 -0.01362,-0.026 -0.0095,-0.0181 -0.01853,-0.0366 -0.02723,-0.0557 -0.0024,-0.006 -0.0046,-0.01 -0.0068,-0.0153 -0.01193,-0.0268 -0.02324,-0.05459 -0.03386,-0.08339 -0.06248,-0.16875 -0.103821,-0.36987 -0.122767,-0.60562 -0.01237,0.22207 -0.05859,0.43804 -0.153483,0.63959 -0.09688,0.18926 -0.286974,0.38681 -0.469488,0.54228 0.08764,0.031 0.173573,0.0293 0.253943,0.007 0.0017,-0.001 0.0036,-0.006 0.0056,-0.01 0.0017,0.001 0.0017,0.006 0.0036,0.007 0.02926,-0.01 0.05849,-0.0202 0.08774,-0.0328 -0.02199,0.0511 -0.04387,0.1023 -0.06764,0.15348 0.01892,-0.006 0.04323,-0.0143 0.06911,-0.0253 -0.142119,0.2957 -0.34915,0.57404 -0.63907,0.82358 -3.17e-4,3.88e-4 -7.94e-4,7.91e-4 -7.94e-4,10e-4 -0.0064,0.006 -0.01265,0.0111 -0.01924,0.0168 0.0071,0.001 0.01419,0.006 0.02124,0.007 2.1e-4,1.1e-4 3.96e-4,3.2e-4 7.93e-4,3.99e-4 0.0024,7.99e-4 0.0051,10e-4 0.0076,10e-4 0.0067,0.001 0.01362,0.004 0.02031,0.006 0.0085,0.001 0.01714,0.004 0.02565,0.006 0.0036,8.1e-4 0.0071,0.001 0.0107,0.001 0.07332,0.016 0.146218,0.0189 0.216915,0.0125 0.0012,-3.2e-4 0.0028,-7.99e-4 0.0043,-0.001 0.0076,-7.99e-4 0.01546,-0.001 0.02314,-0.001 -0.07121,0.0767 -0.148011,0.15158 -0.232062,0.22291 0.112773,0.0399 0.221962,0.0436 0.327476,0.0241 -0.180411,0.30244 -0.416578,0.58784 -0.719121,0.85072 -0.0107,0.01 -0.02124,0.0185 -0.03221,0.0278 0.0036,10e-4 0.0074,10e-4 0.01098,0.004 0.0056,0.001 0.01084,0.006 0.01631,0.01 0.127813,0.0402 0.255727,0.0512 0.37807,0.0384 0.02986,-0.001 0.06491,-0.007 0.102153,-0.0152 0.0284,-0.006 0.05649,-0.0125 0.08425,-0.0195 -0.186304,0.27036 -0.41647,0.52787 -0.697764,0.76719 0.07489,0.0274 0.151584,0.042 0.228379,0.0456 -0.148012,0.14065 -0.312326,0.27404 -0.495051,0.40374 0.0017,3.97e-4 0.0032,7.94e-4 0.0044,10e-4 -3.17e-4,2.1e-4 -7.94e-4,3.97e-4 -7.94e-4,7.94e-4 -0.0072,0.004 0.01464,0.007 0.02187,0.0111 0.168101,0.053 0.336102,0.0657 0.498737,0.0511 0.02473,-0.006 0.04859,-0.0111 0.07185,-0.0163 3.97e-4,0 7.94e-4,-1.1e-4 0.0012,-1.1e-4 -0.233851,0.40375 -0.544391,0.81285 -1.06322,1.06311 0.138544,0.0425 0.262362,0.0655 0.384915,0.073 -0.09037,0.0634 -0.183885,0.12191 -0.280771,0.17548 0.133498,0.0699 0.343781,0.12607 0.5567,0.13692 -0.217651,0.21313 -0.462338,0.41878 -0.741213,0.61561 0.06291,0.0199 0.213969,0.0336 0.293498,0.0456 -0.224174,0.19009 -0.466861,0.35388 -0.728275,0.49149 0.162108,0.0821 0.354828,0.14905 0.545548,0.16904 -0.199558,0.17716 -0.414894,0.34746 -0.649693,0.5141 0.08583,0.0256 0.173576,0.0456 0.259415,0.0603 -0.08774,0.0785 -0.180832,0.15526 -0.275825,0.23205 0.0687,0.0245 0.140858,0.0384 0.215127,0.0445 -0.138641,0.0926 -0.282767,0.17789 -0.432462,0.25521 0.348934,0.0841 0.663052,0.14064 1.108769,-0.15705 0.03471,0.18629 0.06027,0.30685 0.0056,0.43655 0.249211,-0.034 0.37555,-0.14043 0.513884,-0.32883 0.04028,-0.0202 0.08101,-0.0405 0.121391,-0.0606 0.03312,0.17232 0.0262,0.42742 -0.0032,0.56848 0.146958,0.0425 0.471277,-0.13907 0.715017,-0.33411 0.146645,-0.0178 0.305594,-0.0783 0.444982,-0.14527 0.237636,0.25374 0.695452,0.53062 1.010089,0.56343 -0.05449,-0.0817 -0.08731,-0.20597 -0.107711,-0.33462 0.04449,0.0175 0.07932,0.0236 0.09858,0.0111 -0.01,-0.0942 -0.003,-0.20083 0.014,-0.29834 0.19155,0.15053 0.46938,0.3524 0.67283,0.38607 -0.0683,-0.10995 -0.0727,-0.36335 -0.037,-0.48401 0.0871,0.0311 0.17347,0.0638 0.26256,0.0928 0.30781,0.17316 0.68536,0.17127 0.92342,0.10078 0.0129,-0.006 0.0493,-0.0111 0.0384,-0.0182 -0.0237,-0.0149 -0.0473,-0.0303 -0.0707,-0.0456 z"
       id="path934-2" />
    <path
       style="clip-rule:evenodd;fill-rule:evenodd;stroke:#ffffff;stroke-width:0.16329095;stroke-opacity:1"
       inkscape:connector-curvature="0"
       d="m 93.888766,86.595884 c 0.101772,-0.026 0.207701,-0.058 0.319888,-0.0987 -0.490526,-0.22975 -0.558629,-0.24951 -0.981067,-0.57005 0.204118,-0.0339 0.40841,-0.0935 0.601081,-0.18436 -0.450846,-0.2126 -0.870495,-0.4706 -1.253255,-0.77401 0.160508,-0.0412 0.32103,-0.0858 0.48122,-0.13299 0.204436,-0.019 0.411327,-0.0577 0.618868,-0.11938 0.01696,-0.008 0.06817,-0.0169 0.0539,-0.0283 -0.356951,-0.23138 -0.687936,-0.47893 -0.991339,-0.74052 0.08513,-0.0255 0.168846,-0.0572 0.251135,-0.0961 -0.332617,-0.156791 -0.642377,-0.34472 -0.9288,-0.56286 -0.136649,-0.15092 -0.26469,-0.30504 -0.383727,-0.462611 0.03439,-0.005 0.0688,-0.0126 0.103041,-0.0209 0.305844,0.0283 0.623117,0.003 0.945938,-0.0966 0.01109,-0.008 0.05105,-0.0143 0.03963,-0.0227 -0.109225,-0.0742 -0.215389,-0.1506 -0.318256,-0.22877 0.184189,-0.0268 0.366257,-0.0774 0.542283,-0.15694 -0.772859,-0.36577 -1.419818,-0.89222 -1.936797,-1.58587 0.381455,0.0966 0.882586,1.5e-4 1.14566,-0.13808 -0.288216,-0.15856 -0.552906,-0.35189 -0.794746,-0.57936 0.106466,-0.0232 0.214574,-0.0626 0.321198,-0.12112 -0.4791,-0.27057 -0.882427,-0.65873 -1.204765,-1.16737 0.123617,0.0726 0.285438,0.0995 0.449213,0.0966 0.168682,0.006 0.343242,-0.0243 0.521394,-0.10875 0.02284,-0.009 0.04439,-0.0204 0.06404,-0.0312 -4.5e-4,-1.7e-4 -5.82e-4,-5.03e-4 -0.0012,-6.35e-4 0.0012,-6.09e-4 0.0031,-8.47e-4 0.0048,-0.002 -0.521712,-0.29491 -0.944147,-0.74003 -1.264689,-1.34404 0.187136,0.0597 0.391251,0.0566 0.60108,-0.0566 -0.147445,-0.0851 -0.280698,-0.18435 -0.405458,-0.30619 5.03e-4,1.8e-4 0.0012,1.8e-4 0.0019,3.44e-4 0.0025,6.35e-4 0.0043,0.002 0.0069,0.003 0.175866,0.0312 0.360058,0.0111 0.552903,-0.0935 -0.03247,-0.0183 -0.06433,-0.0376 -0.09585,-0.0575 -0.0066,-0.005 -0.01316,-0.008 -0.01962,-0.0126 -0.02481,-0.016 -0.04932,-0.0323 -0.07347,-0.0494 -0.0074,-0.005 -0.01458,-0.0111 -0.02172,-0.016 -0.02321,-0.0168 -0.04604,-0.0338 -0.06857,-0.0517 -0.0069,-0.006 -0.01363,-0.0111 -0.02043,-0.0166 -0.02282,-0.0184 -0.04535,-0.0372 -0.06759,-0.0566 -0.0055,-0.005 -0.01141,-0.0111 -0.01715,-0.0159 -0.02334,-0.0209 -0.04635,-0.0421 -0.06891,-0.0642 -0.0043,-0.003 -0.008,-0.008 -0.01204,-0.0126 -0.0245,-0.0243 -0.0487,-0.049 -0.07233,-0.0745 -0.0019,-0.002 -0.0036,-0.003 -0.0055,-0.006 -0.185333,-0.20168 -0.34389,-0.44466 -0.475013,-0.72991 0.02185,0.008 0.04376,0.0143 0.06547,0.0169 -0.0025,-0.006 -0.0025,-0.008 -0.0055,-0.0111 -0.04537,-0.10495 -0.08508,-0.21555 -0.12476,-0.32886 0.170151,0.10478 0.27776,0.0935 0.490527,-0.0227 -0.02827,-0.016 -0.05585,-0.0332 -0.08278,-0.0512 -0.0036,-0.003 -0.008,-0.005 -0.01189,-0.008 -0.0261,-0.0178 -0.05177,-0.0368 -0.07658,-0.0566 -0.0036,-0.003 -0.0069,-0.006 -0.01047,-0.008 -0.02518,-0.0204 -0.0498,-0.0417 -0.07364,-0.0642 -3.17e-4,-3.18e-4 -6.35e-4,-4.77e-4 -6.35e-4,-6.09e-4 -0.02284,-0.0217 -0.04493,-0.0447 -0.06663,-0.0681 -0.0049,-0.006 -0.01047,-0.0111 -0.01553,-0.0169 -0.01976,-0.0222 -0.03889,-0.0452 -0.05764,-0.0691 -0.0063,-0.008 -0.01237,-0.0165 -0.01864,-0.0248 -0.01363,-0.0183 -0.02691,-0.0369 -0.03999,-0.056 -0.0098,-0.0143 -0.01927,-0.0287 -0.02876,-0.0436 -0.01094,-0.0171 -0.02172,-0.0349 -0.03234,-0.0528 -0.0089,-0.0143 -0.01747,-0.0301 -0.02598,-0.0454 -0.0074,-0.0126 -0.01427,-0.0269 -0.02123,-0.0404 -0.01458,-0.028 -0.02876,-0.0567 -0.04228,-0.0866 -0.0036,-0.008 -0.0071,-0.0158 -0.01063,-0.0238 -0.01842,-0.0417 -0.03606,-0.0848 -0.05255,-0.12951 -0.09699,-0.26193 -0.161165,-0.57413 -0.190561,-0.94007 -0.01927,0.34472 -0.09094,0.67994 -0.238243,0.99282 -0.150393,0.29376 -0.445456,0.60041 -0.728764,0.84175 0.13603,0.0482 0.269428,0.0454 0.394182,0.0111 0.0025,-0.003 0.0055,-0.008 0.0086,-0.0143 0.0025,0.003 0.0025,0.008 0.0055,0.0111 0.04542,-0.0143 0.09079,-0.0312 0.136189,-0.0511 -0.03413,0.0794 -0.06808,0.15889 -0.104991,0.23824 0.02937,-0.008 0.0671,-0.0222 0.107274,-0.0393 -0.220606,0.459 -0.541969,0.89107 -0.991998,1.278391 -4.76e-4,6.08e-4 -0.0012,8.46e-4 -0.0012,0.003 -0.01,0.008 -0.01962,0.0174 -0.02987,0.0261 0.01094,0.003 0.02204,0.008 0.03296,0.0111 3.17e-4,1.69e-4 6.09e-4,5.02e-4 0.0012,6.08e-4 0.0036,8.47e-4 0.008,0.003 0.01189,0.003 0.01047,0.003 0.02105,0.006 0.03153,0.009 0.01316,0.003 0.02661,0.006 0.0398,0.009 0.0055,8.47e-4 0.01109,0.003 0.01666,0.003 0.113822,0.0248 0.226968,0.0294 0.336705,0.0184 0.0019,-5.03e-4 0.0043,-8.47e-4 0.0066,-0.002 0.01189,-8.46e-4 0.024,-0.003 0.03593,-0.003 -0.11054,0.11906 -0.22975,0.23529 -0.360218,0.34601 0.175046,0.062 0.344543,0.0679 0.508324,0.0372 -0.280038,0.469469 -0.646626,0.912479 -1.116251,1.320539 -0.01666,0.0143 -0.03296,0.0287 -0.04998,0.0432 0.0055,0.002 0.01141,0.003 0.01715,0.006 0.0086,0.003 0.01679,0.008 0.0253,0.0143 0.198394,0.0623 0.396954,0.0794 0.586861,0.0596 0.04635,-0.003 0.100762,-0.0111 0.15856,-0.0234 0.04407,-0.008 0.08768,-0.0184 0.130784,-0.0303 -0.28919,0.41964 -0.646466,0.81938 -1.083105,1.19088 0.116262,0.0426 0.235296,0.0652 0.3545,0.0709 -0.22975,0.218321 -0.484808,0.425371 -0.768442,0.626711 0.0025,6.08e-4 0.0049,8.46e-4 0.0069,0.002 -4.87e-4,3.44e-4 -0.0012,6.35e-4 -0.0012,8.47e-4 -0.01126,0.006 0.02272,0.0111 0.03394,0.0169 0.260935,0.0823 0.521714,0.10209 0.774165,0.0794 0.03839,-0.008 0.07544,-0.0163 0.111523,-0.0254 6.08e-4,0 0.0012,-1.8e-4 0.0019,-1.8e-4 -0.362997,0.62672 -0.845034,1.26177 -1.650385,1.65023 0.215054,0.066 0.407251,0.10157 0.597485,0.11335 -0.140264,0.0983 -0.285435,0.18924 -0.435827,0.27235 0.207217,0.1086 0.533634,0.19563 0.864136,0.21261 -0.337846,0.33084 -0.717663,0.65006 -1.150546,0.95559 0.09765,0.0309 0.332132,0.0523 0.455581,0.0709 -0.347974,0.29506 -0.724686,0.5493 -1.130463,0.76291 0.25163,0.12744 0.55078,0.23136 0.846826,0.26238 -0.309764,0.27499 -0.644019,0.53936 -1.008486,0.79802 0.133241,0.0397 0.269432,0.0709 0.402678,0.0935 -0.13619,0.1219 -0.280699,0.24103 -0.428152,0.36022 0.106625,0.0381 0.218648,0.0596 0.333931,0.069 -0.215218,0.14378 -0.438927,0.27612 -0.67129,0.39614 0.541636,0.13047 1.029223,0.21832 1.721088,-0.24379 0.05389,0.28919 0.09356,0.47634 0.0086,0.67766 0.386837,-0.053 0.582947,-0.21799 0.797678,-0.51045 0.06254,-0.0312 0.125743,-0.0628 0.18844,-0.094 0.05141,0.26748 0.04068,0.66346 -0.0049,0.88243 0.228114,0.066 0.731541,-0.21588 1.109886,-0.51862 0.227629,-0.0275 0.474357,-0.12158 0.690723,-0.2255 0.368872,0.39387 1.079516,0.82365 1.567915,0.87459 -0.08459,-0.12682 -0.135524,-0.31971 -0.167208,-0.51942 0.06907,0.0272 0.123127,0.0366 0.153009,0.0174 -0.01506,-0.14632 -0.0043,-0.31173 0.02172,-0.46311 0.297348,0.23367 0.728606,0.54703 1.044404,0.59928 -0.106053,-0.17064 -0.11287,-0.56401 -0.05738,-0.75131 0.135225,0.0483 0.269274,0.0991 0.407573,0.14411 0.477792,0.26878 1.063847,0.26583 1.433372,0.15646 0.01998,-0.008 0.07656,-0.0169 0.05961,-0.0284 -0.03678,-0.0229 -0.07341,-0.0471 -0.1097,-0.0709 z"
       id="path934-2-3" />
    <path
       style="clip-rule:evenodd;fill-rule:evenodd;stroke:#ffffff;stroke-width:0.21333681;stroke-opacity:1"
       d="m 109.9828,76.370243 c -0.0253,0.45037 -0.11873,0.88833 -0.31111,1.29708 -0.19655,0.38379 -0.58227,0.78457 -0.95244,1.09987 0.17772,0.063 0.35226,0.0594 0.51526,0.0144 0.004,-0.004 0.008,-0.0101 0.0101,-0.019 0.004,0.004 0.004,0.0101 0.008,0.015 0.0592,-0.0187 0.11887,-0.0413 0.1781,-0.0671 -0.0445,0.10373 -0.0889,0.20801 -0.13705,0.31169 0.0383,-0.0101 0.0874,-0.0291 0.13995,-0.0515 -0.28822,0.599691 -0.70796,1.16404 -1.29592,1.67007 -6.1e-4,7.94e-4 -0.001,10e-4 -0.001,0.004 -0.0124,0.0101 -0.026,0.0228 -0.0393,0.0341 0.0145,0.004 0.0291,0.0101 0.0434,0.0144 4.2e-4,2.2e-4 8.5e-4,3.97e-4 0.001,5.82e-4 0.004,10e-4 0.0101,0.004 0.0144,0.004 0.0145,0.004 0.0274,0.008 0.0411,0.0128 0.0166,0.004 0.0348,0.008 0.052,0.0122 0.008,10e-4 0.0148,0.004 0.0219,0.004 0.14871,0.0323 0.29672,0.0379 0.44008,0.0237 0.002,-6.35e-4 0.007,-0.001 0.008,-0.002 0.0166,-0.001 0.0312,-0.004 0.0469,-0.004 -0.14437,0.15554 -0.29969,0.30699 -0.47014,0.45164 0.22868,0.081 0.44987,0.0891 0.66386,0.0491 -0.36586,0.61333 -0.84486,1.19188 -1.45842,1.725 -0.0217,0.0187 -0.0431,0.0373 -0.0653,0.0561 0.007,0.002 0.0151,0.004 0.0226,0.008 0.0112,0.004 0.0219,0.0101 0.0329,0.0185 0.25921,0.0814 0.51867,0.10396 0.76681,0.0781 0.0604,-0.004 0.13159,-0.0145 0.20702,-0.0307 0.0576,-0.0101 0.11425,-0.0244 0.17059,-0.0399 -0.37781,0.54827 -0.8446,1.070791 -1.41505,1.55615 0.1519,0.0555 0.30745,0.0852 0.4632,0.0925 -0.30016,0.28524 -0.63334,0.55582 -1.00389,0.818851 0.003,8.2e-4 0.007,10e-4 0.009,0.002 -6.3e-4,4.24e-4 -0.001,2.91e-4 -0.001,5.82e-4 -0.0147,0.008 0.0293,0.0149 0.044,0.0226 0.3409,0.10754 0.68159,0.13316 1.01142,0.10351 0.0501,-0.0101 0.099,-0.0212 0.14631,-0.0329 h 0.002 c -0.47425,0.81879 -1.10366,1.6483 -2.15583,2.15582 0.28097,0.0862 0.53213,0.13272 0.78067,0.14804 -0.18325,0.12841 -0.37312,0.24705 -0.5696,0.35564 0.27072,0.14187 0.697,0.25597 1.12879,0.27815 -0.44139,0.43224 -0.93738,0.84876 -1.50294,1.24792 0.12758,0.0404 0.43376,0.0684 0.59505,0.0926 -0.45462,0.3855 -0.94677,0.71788 -1.47692,0.99695 0.32875,0.16651 0.71947,0.30238 1.10625,0.34291 -0.40471,0.35928 -0.84116,0.70469 -1.31732,1.04264 0.17408,0.0518 0.35215,0.0924 0.52623,0.12202 -0.17793,0.15927 -0.36713,0.31499 -0.55977,0.47071 0.1393,0.0497 0.28598,0.078 0.4366,0.0902 -0.28118,0.18785 -0.57367,0.36074 -0.87725,0.51755 0.70764,0.17045 1.345,0.28511 2.24893,-0.31863 0.0704,0.37782 0.12202,0.62231 0.0112,0.88534 0.50539,-0.0691 0.7615,-0.28465 1.04204,-0.66675 0.0817,-0.0409 0.16445,-0.0824 0.24636,-0.12317 0.0671,0.34946 0.053,0.867 -0.007,1.15308 0.29803,0.0862 0.95603,-0.28222 1.45033,-0.67774 0.29738,-0.036 0.61942,-0.15858 0.90211,-0.29434 0.48192,0.51458 1.41076,1.07612 2.04884,1.14267 -0.11056,-0.16567 -0.17721,-0.41798 -0.21859,-0.6789 0.0903,0.0354 0.16057,0.0481 0.1995,0.0232 -0.0207,-0.19118 -0.007,-0.4077 0.0289,-0.60547 0.38848,0.30529 0.95157,0.71473 1.36416,0.78299 -0.13856,-0.22293 -0.14709,-0.73664 -0.0746,-0.98134 0.17666,0.0631 0.35132,0.12971 0.53201,0.18853 0.62423,0.35115 1.39027,0.34702 1.87304,0.20413 0.0261,-0.0101 0.0996,-0.0221 0.0774,-0.037 -0.048,-0.03 -0.0955,-0.0615 -0.14285,-0.0925 l 0.006,-0.004 c 0.13296,-0.034 0.27152,-0.0757 0.41809,-0.12896 -0.64086,-0.30014 -0.73012,-0.32603 -1.28203,-0.74481 0.26668,-0.0443 0.53357,-0.12247 0.78529,-0.24115 -0.58902,-0.27775 -1.13704,-0.61501 -1.6371,-1.0114 0.2097,-0.0538 0.4193,-0.11179 0.6286,-0.17349 0.26709,-0.0248 0.53727,-0.0756 0.80842,-0.15613 0.0222,-0.0101 0.0893,-0.0222 0.0706,-0.037 -0.46636,-0.30231 -0.89894,-0.62571 -1.29534,-0.96746 0.11123,-0.0333 0.22096,-0.0747 0.32846,-0.12548 -0.43455,-0.20483 -0.8396,-0.44999 -1.21381,-0.735 -0.17852,-0.19717 -0.34583,-0.399 -0.50136,-0.60487 0.045,-0.007 0.09,-0.0164 0.13474,-0.0272 0.39957,0.0368 0.81402,0.004 1.23578,-0.12607 0.0145,-0.0101 0.0669,-0.0183 0.052,-0.0294 -0.14268,-0.0969 -0.28138,-0.19685 -0.41576,-0.29898 0.24065,-0.035 0.47842,-0.10127 0.70838,-0.20528 -1.00973,-0.47786 -1.85514,-1.16572 -2.53054,-2.07197 0.49835,0.12612 1.15346,1.8e-4 1.49716,-0.18043 -0.37655,-0.20714 -0.72264,-0.4592 -1.03859,-0.75639 0.13918,-0.0302 0.28053,-0.082 0.41983,-0.15844 -0.62593,-0.35349 -1.15293,-0.86095 -1.57407,-1.5255 0.16154,0.0949 0.373,0.13058 0.58696,0.12665 0.22039,0.008 0.44845,-0.0319 0.6812,-0.14226 0.0299,-0.0124 0.0575,-0.027 0.0832,-0.0411 -5.3e-4,-2.1e-4 -7.9e-4,-3.97e-4 -0.001,-5.82e-4 0.001,-8.2e-4 0.004,-0.001 0.007,-0.002 -0.68162,-0.38529 -1.23337,-0.96709 -1.65213,-1.75622 0.24449,0.0779 0.51117,0.0745 0.7853,-0.0734 -0.19262,-0.11123 -0.36671,-0.24101 -0.5297,-0.40017 6.6e-4,2.2e-4 10e-4,3.71e-4 0.002,5.82e-4 0.004,8.2e-4 0.007,0.002 0.008,0.004 0.22977,0.0408 0.47033,0.0147 0.72227,-0.12202 -0.0424,-0.0238 -0.0836,-0.0494 -0.12491,-0.0752 -0.008,-0.007 -0.0169,-0.0101 -0.026,-0.0162 -0.0326,-0.0209 -0.0643,-0.0425 -0.096,-0.0648 -0.0101,-0.007 -0.0185,-0.0144 -0.0283,-0.0208 -0.0302,-0.0219 -0.0601,-0.0443 -0.0896,-0.0677 -0.008,-0.008 -0.0186,-0.0142 -0.0266,-0.0214 -0.0298,-0.0241 -0.0595,-0.0487 -0.0885,-0.074 -0.008,-0.007 -0.0141,-0.0147 -0.0219,-0.0208 -0.0304,-0.0273 -0.0605,-0.055 -0.0902,-0.0838 -0.007,-0.004 -0.0101,-0.0101 -0.0168,-0.0168 -0.0321,-0.0317 -0.0633,-0.0638 -0.0942,-0.0971 l -0.008,-0.008 c -0.24214,-0.26346 -0.44918,-0.58088 -0.62048,-0.95357 0.0285,0.0101 0.0573,0.0191 0.0856,0.0226 -0.004,-0.008 -0.004,-0.0101 -0.008,-0.0144 -0.0592,-0.13712 -0.11078,-0.28162 -0.16249,-0.42967 0.22228,0.1369 0.36275,0.12179 0.64073,-0.0301 -0.0368,-0.0209 -0.073,-0.0429 -0.1081,-0.0665 -0.004,-0.004 -0.0101,-0.007 -0.0168,-0.0101 -0.0341,-0.0232 -0.0677,-0.0481 -0.10004,-0.0741 -0.004,-0.004 -0.008,-0.008 -0.0144,-0.0101 -0.0329,-0.0267 -0.0652,-0.0544 -0.0966,-0.0838 -4.3e-4,-4.23e-4 -5.6e-4,-9.79e-4 -5.6e-4,-0.001 -0.0299,-0.0284 -0.0584,-0.0584 -0.0867,-0.0891 -0.007,-0.008 -0.0147,-0.0143 -0.0208,-0.0219 -0.0258,-0.029 -0.051,-0.0589 -0.0758,-0.0902 -0.008,-0.0101 -0.0164,-0.0215 -0.0243,-0.0323 -0.0187,-0.0238 -0.0351,-0.0486 -0.052,-0.0734 -0.0124,-0.0186 -0.0252,-0.0372 -0.0376,-0.0566 -0.0145,-0.0224 -0.0283,-0.0454 -0.0422,-0.0688 -0.0124,-0.0187 -0.0229,-0.0395 -0.0341,-0.0595 -0.0101,-0.0166 -0.0186,-0.035 -0.0277,-0.0526 -0.0187,-0.0367 -0.0372,-0.0744 -0.0549,-0.11335 -0.004,-0.0101 -0.0101,-0.0208 -0.015,-0.0312 -0.0241,-0.0545 -0.0468,-0.11045 -0.0683,-0.16886 -0.12676,-0.34221 -0.21086,-0.75017 -0.24925,-1.22825 z"
       id="path934-2-0"
       inkscape:connector-curvature="0" />
    <path
       style="fill:none;stroke:#000000;stroke-width:0.56500006;stroke-linecap:butt;stroke-linejoin:miter;stroke-miterlimit:4;stroke-dasharray:none;stroke-opacity:1;marker-end:url(#Arrow2Lend)"
       d="m 100.43493,73.972213 8.34632,-0.39747"
       id="path1442"
       inkscape:connector-curvature="0" />
  </g>
</svg>
